<?xml version="1.0" encoding="UTF-8" standalone="no"?>
<!-- Created with Inkscape (http://www.inkscape.org/) -->

<svg
   version="1.1"
   id="svg182"
   width="806.8233"
   height="806.8233"
   viewBox="0 0 806.8233 806.8233"
   xmlns="http://www.w3.org/2000/svg"
   xmlns:svg="http://www.w3.org/2000/svg">
  <defs
     id="defs186" />
  <g
     id="g188"
     transform="translate(-78.081878,-65.570165)">
    <path
       id="path300"
       style="fill:#ff0000"
       d="m 546.11222,116.73099 c 14.59133,11.83934 17.05411,15.19499 40.03485,38.43033 l 28.24677,27.40254 c 17.83742,20.66402 23.28754,23.94476 42.6816,46.55945 0,0 16.59865,18.51379 28.92249,40.13679 13.63986,23.93205 17.65853,28.17953 26.95917,58.65123 6.39326,20.94627 12.98896,51.73703 14.04485,85.53008 0.60432,19.34087 -0.63866,46.94098 -2.54492,56.54687 -0.54069,2.72465 -2.83028,15.92426 -4.56688,24.09784 -3.36677,15.84619 -9.97558,27.46689 -17.75001,41.72274 -1.35718,2.48864 -2.9595,3.63868 -7.24344,7.91683 -12.70207,-10.88495 -14.86326,-14.53857 -25.85554,-25.94075 -10.80405,-11.20431 -22.11758,-22.93847 -25.14258,-26.07617 -34.60477,-35.894 -59.21468,-61.33547 -72.11523,-74.55273 -29.88001,-30.61359 -37.73825,-39.11132 -37.73825,-39.9959 -66.37742,-76.85371 5.98288,3.02038 -67.0771,-78.84762 -9.33572,-13.80343 -10.64261,-28.10035 -12.66583,-33.62156 -2.6122,-7.12846 -10.91466,-23.32621 -17.32617,-33 -6.21739,-9.38087 -19.96666,-24.51652 -30.6907,-32.58766 -19.37904,-14.58508 -44.18857,-23.59994 -69.65039,-25.30859 -25.61761,-1.7191 -48.94577,2.17736 -68.91406,11.51172 -11.81924,5.525 -16.52917,8.44387 -26.25977,16.26953 -8.13265,6.54054 -8.67615,7.06838 -18.8125,18.25586 -7.04397,7.77441 -8.15745,8.60863 -12.23828,9.16797 -23.89374,3.275 -46.83339,14.87365 -64.51563,32.62109 -11.60545,11.64826 -16.74712,18.61511 -23.27343,31.53516 -6.11173,12.09927 -12.4331,33.43564 -8.44141,28.49218 3.10143,-3.84091 15.95014,-14.10619 22.75,-18.17578 8.34465,-4.9941 16.20672,-7.8441 28.96875,-10.5 11.19081,-2.32891 40.2896,-2.35065 54,-0.041 14.70799,2.47767 27.95967,5.42957 34,7.57617 50.97187,18.11425 73.07203,34.42348 114.23821,72.60783 l 19.26179,19.44881 c 68.00426,72.51949 -2.46456,-2.63999 67.78125,74.0918 0.2463,0 12.09724,12.45992 26.33398,27.68945 14.23675,15.22953 27.90977,29.7605 30.38477,32.29102 2.475,2.53051 6.15881,6.52309 8.1875,8.87109 2.02869,2.348 9.2287,10.18186 16,17.41015 6.7713,7.22831 14.5625,15.58814 17.3125,18.57618 5.17034,5.61789 17.08894,18.36785 28.62695,30.62304 3.64503,3.87161 8.59504,9.27267 11,12.00391 2.40497,2.73125 9.06425,10.42438 14.01425,15.57647 -6.57513,4.11264 -28.11779,18.92046 -39.65703,22.40362 -8.20175,5.48175 -37.50386,11.41567 -46.94718,11.85164 -12.11089,0.55912 -53.59158,-2.71448 -68.21864,-5.17293 -26.58,-4.46744 -74.0286,-28.8133 -87.48414,-40.09539 -35.29783,-21.55867 -67.31871,-55.23995 -105.49662,-95.21682 -23.03184,22.37581 -44.09805,48.74107 -50.79232,48.67622 -2.99045,-0.029 -4.00799,-2.95414 -6.51984,1.00463 -3.83807,6.04892 -10.7274,29.41162 -35.01543,46.52396 -37.96343,26.74746 -69.963387,90.48631 -86.931857,114.65124 0.11987,10.38394 15.48197,26.71418 27.455167,30.97443 45.04302,-21.84554 112.03557,-69.86734 121.89757,-87.86971 8.22036,-15.00567 12.94875,-26.95363 38.40932,-35.17209 l 30.72722,30.14791 c 6.57083,7.01891 22.59202,22.58529 30.50183,27.97047 4.25573,2.89739 26.29785,17.28121 29.15969,18.86594 5.4397,3.01222 17.77417,10.50961 30.72582,15.74394 8.03837,3.24866 27.31572,10.33768 32.40655,11.57884 1.93267,0.47119 28.21759,5.62888 34.74763,6.05157 17.32608,1.12152 39.68593,3.95692 56.36748,3.70354 25.43441,-0.38634 43.83296,-1.17192 54.94141,-3.29267 4.39999,-0.84002 23.80592,-5.64954 39.25551,-9.58072 12.76225,-3.24738 31.99847,-12.48818 38.50301,-16.45207 l 40.34606,-26.79499 c 20.35639,16.50848 29.0803,23.13773 40.45185,31.04074 19.67576,13.4665 54.35861,36.31203 79.44443,52.96046 4.5581,3.02499 27.33167,17.16586 30.51146,19.36586 3.1797,2.19999 8.27365,5.68937 10.96745,7.40299 2.6937,1.71363 7.20681,4.51098 8.50313,5.31023 79.14746,43.59482 -13.61883,-78.5696 -31.55773,-106.3729 -17.70399,-29.09233 -35.26646,-52.75599 -42.89016,-65.47367 -6.4608,-9.10495 -12.09251,-16.30873 -16.97587,-23.02474 -0.31097,-0.42768 3.67899,0.80636 10.29326,-9.34338 9.14751,-14.03706 12.06098,-17.50145 21.77959,-37.47448 7.31463,-15.03253 12.59358,-28.77896 16.30142,-47.48152 3.52938,-17.80237 10.99149,-42.51971 11.42071,-62.24646 0.31806,-14.61752 1.7077,-43.74481 -0.31269,-55.29702 -2.53268,-14.4813 -2.89055,-32.60116 -8.41908,-53.54509 C 810.41516,338.882 802.71154,322.92117 794.34475,303.08526 786.26202,283.9228 770.53679,261.70953 761.2581,248.48606 748.34111,234.47983 732.79673,216.23643 715.74845,202.06654 697.94009,187.2649 675.0959,171.98828 654.27736,162.34798 617.23879,145.1968 588.61513,130.97995 546.11222,116.73099 Z M 295.01381,221.61111 c 3.75883,0.0542 7.53062,1.15711 11.88477,3.31836 7.78631,3.86488 10.26376,7.1998 12.42969,16.72266 1.53835,6.76362 1.52218,7.04643 -0.83594,13.54297 -2.83381,7.80704 -5.34217,10.76687 -11.98242,14.14648 -14.00679,7.12889 -30.18916,1.07841 -35.56836,-13.29883 -3.37131,-9.01062 -2.50976,-14.93737 3.57617,-24.57812 1.81474,-2.87473 4.17473,-4.74298 8.68555,-6.87695 4.30443,-2.03635 8.05172,-3.03079 11.81054,-2.97657 z" />
  </g>
</svg>
