<svg xmlns="http://www.w3.org/2000/svg"  viewBox="0 0 64 64" width="48px" height="48px"><path fill="#f00" d="M52.83,33.64l1.52,2.33c1.4,2.15,0.46,5.04-1.94,5.95l-2.6,1c-1.1,0.42-1.86,1.46-1.92,2.65l-0.14,2.78	c-0.13,2.56-2.59,4.34-5.07,3.68l-2.69-0.72c-1.14-0.31-2.36,0.08-3.11,1.01l-1.75,2.16c-1.61,2-4.65,2-6.26,0l-1.75-2.16	c-0.75-0.93-1.97-1.32-3.11-1.01l-2.69,0.72c-2.48,0.66-4.94-1.12-5.07-3.68l-0.14-2.78c-0.06-1.19-0.82-2.23-1.92-2.65l-2.6-1	c-2.4-0.91-3.34-3.8-1.94-5.95l1.52-2.33c0.65-1,0.65-2.28,0-3.28l-1.52-2.33c-1.4-2.15-0.46-5.04,1.94-5.95l2.6-1	c1.1-0.42,1.86-1.46,1.92-2.65l0.14-2.78c0.13-2.56,2.59-4.34,5.07-3.68l2.69,0.72c1.14,0.31,2.36-0.08,3.11-1.01l1.75-2.16	c1.61-2,4.65-2,6.26,0l1.75,2.16c0.75,0.93,1.97,1.32,3.11,1.01l2.69-0.72c2.48-0.66,4.94,1.12,5.07,3.68l0.14,2.78	c0.06,1.19,0.82,2.23,1.92,2.65l2.6,1c2.4,0.91,3.34,3.8,1.94,5.95l-1.52,2.33C52.18,31.36,52.18,32.64,52.83,33.64z M41.088,26.102	c0.601-0.927,0.336-2.166-0.591-2.766c-0.93-0.6-2.166-0.337-2.767,0.591l-8.273,12.77l-3.365-3.826	c-0.73-0.829-1.994-0.911-2.823-0.18c-0.829,0.729-0.91,1.993-0.181,2.823l5.11,5.809C28.58,41.754,29.128,42,29.701,42	c0.049,0,0.098-0.002,0.146-0.005c0.625-0.046,1.191-0.382,1.532-0.907L41.088,26.102z"/></svg>